<?xml version="1.0" standalone="no"?>
<!DOCTYPE svg PUBLIC "-//W3C//DTD SVG 20010904//EN"
 "http://www.w3.org/TR/2001/REC-SVG-20010904/DTD/svg10.dtd">
<svg version="1.0" xmlns="http://www.w3.org/2000/svg"
 width="1080.000000pt" height="1080.000000pt" viewBox="0 0 1080.000000 1080.000000"
 preserveAspectRatio="xMidYMid meet">
<metadata>
Created by potrace 1.14, written by Peter Selinger 2001-2017
</metadata>
<g transform="translate(0.000000,1080.000000) scale(0.100000,-0.100000)"
fill="#000000" stroke="none">
<path d="M1300 10765 l0 -35 105 0 105 0 -2 -862 -3 -863 -102 -3 -103 -3 0
-113 c0 -89 -3 -115 -14 -119 -9 -4 -12 -14 -9 -27 4 -17 8 -18 14 -8 6 8 7 1
4 -19 -3 -18 -7 -48 -10 -65 -4 -24 -2 -29 5 -18 8 12 10 9 10 -12 0 -16 -4
-28 -9 -28 -5 0 -9 -6 -8 -12 2 -58 2 -58 -83 -58 l-80 0 0 -74 c0 -41 -4 -77
-8 -80 -5 -3 -7 23 -6 57 l2 62 -10 -60 c-14 -77 -14 -912 -1 -1020 l10 -80 2
70 c2 97 4 99 92 90 41 -4 80 -12 87 -18 9 -7 11 -6 6 7 -6 15 -1 17 27 16 73
-4 118 0 122 13 2 6 3 4 2 -5 -2 -10 1 -18 6 -18 4 0 10 -35 12 -77 l4 -78 -1
83 c-1 59 2 82 12 82 8 0 12 -23 12 -80 0 -50 4 -80 11 -80 12 0 3 -37 -14
-58 -9 -11 -13 -11 -24 4 -10 13 -13 14 -13 3 0 -11 -14 -13 -69 -11 l-69 4
-4 -39 c-3 -21 -4 -117 -4 -213 l1 -175 102 -3 102 -3 3 113 3 113 85 6 c47 3
94 10 104 14 16 7 18 5 13 -8 -6 -15 5 -17 101 -18 59 -1 110 -1 115 0 4 0 7
-45 8 -102 1 -56 4 -140 7 -187 l7 -85 58 0 c32 -1 61 3 63 7 3 4 14 8 25 8
12 0 19 7 19 20 0 11 5 20 10 20 6 0 10 10 10 23 0 12 5 29 10 37 7 11 10 -5
10 -52 0 -62 -11 -87 -23 -55 -4 9 -8 9 -14 1 -4 -7 -17 -14 -28 -17 -11 -2
-1 -5 23 -6 69 -2 48 -18 -35 -26 -54 -5 -78 -4 -81 4 -2 6 -15 11 -29 11 -15
0 -23 -5 -20 -12 3 -10 32 -12 105 -11 l102 2 0 -329 0 -330 -112 0 -113 0 3
-111 3 -110 -105 3 -106 3 0 -113 0 -113 -110 3 -110 3 0 -107 0 -108 -107 0
-108 0 3 -110 3 -111 -106 2 c-58 1 -108 -1 -111 -3 -2 -3 -4 -100 -4 -217 l0
-211 -215 0 -214 0 -3 -107 -3 -108 -300 -1 c-165 0 -310 -1 -322 -2 l-23 -2
0 -2230 0 -2230 3025 0 3025 0 -1 303 c0 178 -4 294 -9 282 -5 -11 -9 -15 -9
-8 -1 8 -29 11 -98 10 l-98 -2 1 100 0 100 212 3 212 2 0 -395 0 -395 2270 0
2270 0 0 1150 0 1150 -210 0 -210 0 -6 24 c-3 13 -4 62 -2 110 l3 86 -112 0
-113 0 0 110 0 110 -215 0 -215 0 0 105 0 105 -325 0 -325 0 0 110 0 110 -105
0 -105 0 0 106 c0 94 -2 105 -17 103 -10 -1 -60 -1 -110 0 l-93 1 0 220 0 220
-110 0 -110 0 0 108 0 107 -109 -2 -109 -2 5 215 5 214 -111 0 -111 0 0 110 0
110 -220 0 -220 0 -1 -22 c-1 -22 -1 -22 -8 2 l-8 25 -5 -25 c-5 -23 -5 -23
-7 -2 -1 21 -5 22 -98 24 -54 1 -106 2 -115 1 -10 0 -18 5 -18 11 0 7 -19 10
-50 8 l-50 -4 1 109 c1 59 4 98 6 86 4 -22 43 -34 43 -13 0 8 58 7 65 -2 1 -2
7 -16 13 -33 l10 -30 1 31 c1 16 -4 35 -11 42 -9 9 16 12 115 12 l127 0 0 95
c0 52 -1 98 -2 103 -2 4 -95 7 -208 7 -113 0 -305 1 -427 3 l-223 2 1 103 c0
56 4 111 9 122 5 11 9 14 9 8 1 -10 27 -13 94 -13 l93 0 3 102 c1 56 4 104 6
106 2 2 53 3 114 3 66 -1 112 2 116 9 3 5 3 10 -2 10 -4 0 -6 37 -5 83 3 67 1
86 -12 97 -13 10 -67 14 -211 17 -230 5 -218 12 -213 -128 l3 -89 -112 0 -113
0 0 -220 0 -220 83 -2 c69 -1 73 -2 22 -5 -84 -4 -113 -12 -94 -24 12 -8 12
-10 -1 -19 -8 -5 -10 -10 -4 -10 6 0 8 -19 4 -55 -4 -34 -2 -56 5 -58 5 -1 40
-1 78 1 49 3 67 7 67 18 0 8 4 14 9 14 4 0 6 -11 3 -25 -4 -24 -7 -25 -88 -25
l-84 0 0 -115 0 -115 -110 0 -110 0 -1 -27 c-1 -16 -2 -55 -3 -88 -1 -33 -5
-66 -9 -72 -5 -8 -3 -13 4 -13 7 0 10 -2 7 -5 -10 -10 -182 -15 -196 -6 -10 6
-14 36 -15 102 l-2 94 -39 -4 c-27 -2 -36 0 -32 8 5 8 -11 11 -54 11 -36 0
-59 -4 -55 -9 3 -6 -4 -8 -15 -6 -18 4 -20 -1 -19 -53 0 -44 2 -52 9 -34 5 12
11 22 12 22 2 0 4 -23 5 -50 1 -28 -2 -48 -7 -45 -4 3 -10 -2 -14 -10 -4 -12
4 -15 42 -17 l47 -1 -40 -7 c-22 -4 -51 -10 -64 -15 -23 -8 -24 -9 -5 -16 15
-6 12 -8 -14 -8 -22 -1 -31 3 -26 10 5 9 -7 10 -44 7 -32 -3 -53 -1 -56 6 -2
6 -5 3 -5 -6 -1 -20 -16 -24 -26 -8 -18 29 -26 3 -23 -77 l3 -88 70 -3 c38 -2
71 -5 73 -6 5 -6 -322 -17 -345 -12 -21 4 -22 2 -25 -124 -2 -71 -5 -131 -8
-133 -3 -3 -19 -8 -35 -11 -24 -5 -26 -4 -10 3 14 7 -4 10 -67 10 -85 1 -132
-13 -60 -17 51 -4 54 -12 4 -12 -39 0 -40 -1 -37 -27 2 -16 4 -48 4 -73 l1
-45 90 5 89 5 -3 -35 c-2 -19 -1 -26 1 -15 3 11 10 23 17 27 8 6 8 13 -2 28
-10 17 -10 20 4 20 8 0 13 -4 10 -9 -9 -14 32 -21 129 -21 l90 0 -3 100 -3
100 878 3 c983 2 1687 -1 1709 -10 11 -4 14 -28 14 -107 l0 -101 -107 0 -108
0 -1 -85 c-2 -142 -2 -143 -19 -136 -8 3 -15 1 -15 -4 0 -6 6 -10 13 -10 9 0
12 -26 12 -99 0 -55 -3 -95 -6 -90 -3 6 -12 3 -19 -6 -13 -16 -15 -15 -21 2
-6 13 -8 14 -8 2 -1 -12 -10 -14 -56 -9 -49 5 -55 4 -58 -15 -4 -18 -4 -17 -6
3 -1 21 -3 22 -16 8 -12 -12 -15 -51 -15 -220 0 -126 -4 -206 -10 -206 -5 0
-6 -9 -2 -19 4 -11 6 -57 4 -103 l-3 -83 -101 0 c-55 0 -102 -3 -105 -8 -2 -4
-4 -104 -3 -223 l1 -215 -108 2 -108 2 -3 -109 c-2 -60 -3 -157 -3 -217 l0
-107 -447 -1 c-246 -1 -463 -2 -482 -2 -19 -1 -61 0 -92 1 l-58 2 0 79 c0 43
-3 93 -6 110 l-7 31 -76 -6 c-44 -3 -87 -1 -103 5 -28 10 -28 11 -28 106 l0
96 -47 -6 c-27 -4 -75 -1 -108 5 -33 7 -106 12 -162 12 -56 -1 -105 3 -108 8
-3 6 -1 10 5 10 6 0 8 4 5 10 -3 5 -8 55 -10 111 -2 55 -6 103 -9 106 -3 4 -6
1 -6 -5 0 -8 -26 -12 -80 -12 -47 0 -80 4 -80 10 0 6 -4 10 -10 10 -5 0 -7 -7
-3 -16 4 -11 2 -15 -6 -13 -13 5 -20 177 -7 197 9 15 -17 20 -122 21 -51 0
-97 3 -102 6 -5 3 -9 95 -9 212 0 118 -4 209 -10 212 -5 3 -53 5 -107 3 l-99
-3 0 -107 0 -107 -86 -9 c-88 -9 -159 -3 -159 14 0 6 6 10 13 10 9 0 13 72 16
315 l3 315 -106 0 c-73 0 -105 3 -101 11 4 5 4 102 0 215 l-8 204 -108 0 -109
0 0 116 0 116 -187 -6 c-104 -3 -246 -2 -318 3 -124 8 -126 8 -50 11 44 2 87
4 95 4 12 1 15 15 15 66 0 36 -4 76 -8 90 -8 24 -7 24 7 6 15 -18 16 -14 16
60 0 43 -3 150 -7 237 l-6 157 -93 0 c-81 0 -95 2 -103 19 -10 18 -13 202 -11
639 1 139 -3 212 -9 212 -7 0 -12 -71 -14 -197 l-2 -198 -3 210 c-1 140 -6
205 -12 195 -5 -8 -10 -108 -10 -229 0 -118 -3 -212 -6 -209 -3 4 -5 101 -4
217 l1 211 -46 0 c-29 0 -45 -4 -46 -12 0 -7 -4 -4 -9 7 -5 12 -10 -68 -12
-205 l-3 -225 -5 310 c-5 275 -6 290 -9 130 -5 -281 -16 -140 -19 255 -2 195
-6 366 -9 378 -6 24 -7 24 -93 17 -87 -7 -88 -7 -93 17 -4 23 -4 23 -6 1 0
-13 -5 -23 -9 -23 -5 0 -8 44 -6 97 1 54 -1 102 -4 108 -8 12 -9 16 -11 133
-1 68 -4 92 -13 91 -7 -1 -54 -1 -104 0 l-92 1 -1 220 c0 127 -4 228 -10 238
-6 11 -7 22 -4 26 4 3 1 16 -6 29 -7 13 -11 39 -8 58 4 32 4 31 5 -8 1 -24 7
-43 12 -43 7 0 10 26 9 68 -3 116 2 272 9 272 4 0 7 36 7 79 0 44 -3 74 -7 68
-5 -8 -8 -6 -8 4 0 9 8 20 18 24 16 6 16 7 0 19 -10 7 -18 16 -18 19 0 3 48 5
108 5 l107 -1 3 217 c1 139 6 215 12 211 6 -3 10 -3 10 2 0 4 42 8 92 8 l93 0
3 185 c1 102 0 195 -3 208 -4 18 -12 22 -43 22 -48 0 -62 -14 -61 -59 l1 -36
8 30 c6 23 8 15 9 -36 1 -59 -1 -67 -19 -72 -11 -3 -20 -13 -20 -22 0 -11 -7
-15 -22 -13 -25 3 -24 -1 -27 132 -1 74 -3 87 -16 82 -12 -4 -15 3 -14 37 1
23 3 33 6 22 13 -55 18 -25 8 49 -6 47 -8 83 -3 80 4 -3 8 0 8 5 0 6 -4 11
-10 11 -6 0 -10 38 -10 95 0 92 1 95 23 96 21 1 21 1 -3 8 l-25 8 25 5 c23 5
23 5 3 7 -13 0 -23 6 -23 11 0 6 43 10 110 10 l110 0 2 108 c1 59 1 152 1 207
0 97 0 98 7 30 l6 -70 4 80 c3 73 4 76 10 35 l7 -45 1 42 2 42 83 -2 82 -2 3
107 3 107 107 3 107 3 3 215 c1 118 5 262 7 320 l5 105 97 2 98 1 2 49 c2 26
5 76 9 109 l5 62 105 -6 104 -5 0 42 0 41 -1510 0 -1510 0 0 -35z m2560 -715
c0 -5 -4 -10 -10 -10 -5 0 -10 5 -10 10 0 6 5 10 10 10 6 0 10 -4 10 -10z
m-422 -1417 l-1 -78 -7 70 c-3 39 -5 73 -3 78 10 19 13 1 11 -70z m-48 -63 c0
-5 -7 -10 -16 -10 -8 0 -12 5 -9 10 3 6 10 10 16 10 5 0 9 -4 9 -10z m-1827
-17 c-7 -2 -19 -2 -25 0 -7 3 -2 5 12 5 14 0 19 -2 13 -5z m162 -35 c4 -24 5
-68 3 -98 -4 -53 -4 -53 -6 15 -1 39 -5 80 -8 93 -7 23 -26 31 -23 10 1 -7 0
-42 -1 -78 -2 -36 -5 -51 -7 -33 -5 36 -37 51 -93 44 -16 -2 -12 -38 5 -45 11
-4 13 -11 6 -29 -9 -23 -8 -24 32 -24 23 0 45 5 49 11 5 7 8 5 8 -6 0 -10 9
-22 19 -28 19 -10 20 -19 15 -173 -3 -89 -2 -183 2 -209 l6 -48 98 0 c55 0
101 -3 103 -7 3 -5 7 -100 9 -213 l3 -205 -114 -3 c-93 -2 -112 0 -108 11 3 8
1 20 -4 28 -6 10 -9 10 -9 2 0 -10 -26 -13 -95 -13 -85 0 -118 -9 -82 -23 9
-4 9 -6 0 -6 -16 -1 -26 16 -17 31 11 18 4 141 -10 162 -10 16 -23 19 -104 17
l-92 -2 -2 88 c0 48 -2 147 -2 218 l-1 130 106 3 106 3 -5 95 c-4 87 -2 97 17
118 12 12 21 31 20 42 -1 10 -1 43 -1 72 2 50 3 52 30 52 44 0 102 12 102 21
0 4 -19 10 -42 12 -34 3 -31 4 19 5 l62 2 6 -42z m-100 -57 c-9 -8 -36 -10
-30 -2 2 4 11 8 20 8 8 0 13 -3 10 -6z m15 -41 c0 -11 -4 -20 -10 -20 -5 0
-10 9 -10 20 0 11 5 20 10 20 6 0 10 -9 10 -20z m1770 -44 c0 -2 -9 -6 -20 -9
-11 -3 -20 -1 -20 4 0 5 9 9 20 9 11 0 20 -2 20 -4z m-2217 -13 c-7 -2 -19 -2
-25 0 -7 3 -2 5 12 5 14 0 19 -2 13 -5z m1187 -755 c0 -204 -3 -307 -10 -303
-5 3 -10 -1 -10 -9 0 -9 5 -16 11 -16 7 0 9 -15 5 -42 -15 -120 -15 -125 -7
-93 6 19 8 -31 8 -135 l-1 -165 -6 125 -6 125 -4 -130 -4 -130 -6 120 c-7 134
-11 128 -14 -15 l-1 -95 -78 1 c-42 1 -79 3 -82 6 -2 2 -5 76 -6 164 0 87 -3
180 -6 205 l-5 46 -99 5 c-55 3 -102 8 -106 11 -3 4 -8 49 -11 102 -6 111 -11
105 105 110 43 1 86 3 96 4 16 1 17 18 17 212 l0 210 110 -2 110 -3 0 -308z
m-1273 -120 c-3 -7 -5 -2 -5 12 0 14 2 19 5 13 2 -7 2 -19 0 -25z m603 12 c0
-5 -12 -10 -27 -9 -25 0 -26 1 -8 9 27 12 35 12 35 0z m-73 -6 c-3 -3 -12 -4
-19 -1 -8 3 -5 6 6 6 11 1 17 -2 13 -5z m1210 -101 c-2 -21 -4 -6 -4 32 0 39
2 55 4 38 2 -18 2 -50 0 -70z m20 -75 c-2 -35 -3 -9 -3 57 0 66 1 94 3 63 2
-32 2 -86 0 -120z m-1360 55 c-2 -21 -4 -6 -4 32 0 39 2 55 4 38 2 -18 2 -50
0 -70z m166 -120 c-13 -2 -35 -2 -50 0 -16 2 -5 4 22 4 28 0 40 -2 28 -4z m44
-105 c-2 -18 -4 -6 -4 27 0 33 2 48 4 33 2 -15 2 -42 0 -60z m-134 65 c-13 -2
-33 -2 -45 0 -13 2 -3 4 22 4 25 0 35 -2 23 -4z m82 -3 c3 -5 -3 -10 -14 -10
-11 0 -23 5 -26 10 -3 6 3 10 14 10 11 0 23 -4 26 -10z m1182 -137 c-3 -10 -5
-2 -5 17 0 19 2 27 5 18 2 -10 2 -26 0 -35z m-777 -251 c-41 -3 -50 -6 -35
-12 15 -6 8 -9 -25 -9 -25 1 -39 3 -32 6 6 2 10 9 6 14 -3 5 26 8 68 7 68 -2
70 -2 18 -6z m87 2 c-3 -3 -12 -4 -19 -1 -8 3 -5 6 6 6 11 1 17 -2 13 -5z
m-53 -20 c23 -9 20 -24 -4 -24 -11 0 -20 7 -20 15 0 17 2 18 24 9z m1086 -154
c0 -5 -11 -10 -25 -10 -14 0 -25 5 -25 10 0 6 11 10 25 10 14 0 25 -4 25 -10z
m3753 -917 c-7 -2 -19 -2 -25 0 -7 3 -2 5 12 5 14 0 19 -2 13 -5z m-3466 -235
c-3 -7 -5 -2 -5 12 0 14 2 19 5 13 2 -7 2 -19 0 -25z m0 -70 c-2 -13 -4 -5 -4
17 -1 22 1 32 4 23 2 -10 2 -28 0 -40z m90 -51 c3 -4 -8 -7 -25 -7 -18 0 -32
4 -32 8 0 9 47 8 57 -1z m3123 -293 c0 -17 -22 -14 -28 4 -2 7 3 12 12 12 9 0
16 -7 16 -16z m460 -301 c0 -59 -2 -104 -5 -101 -9 9 -11 217 -2 211 4 -2 7
-52 7 -110z m30 1 c0 -63 -4 -104 -10 -104 -6 0 -10 44 -10 111 0 71 4 108 10
104 6 -3 10 -52 10 -111z m167 -196 c-2 -18 -4 -6 -4 27 0 33 2 48 4 33 2 -15
2 -42 0 -60z m-1335 -12 c3 -14 1 -31 -3 -38 -6 -8 -9 1 -9 25 0 42 6 48 12
13z m1535 -53 c-3 -10 -5 -4 -5 12 0 17 2 24 5 18 2 -7 2 -21 0 -30z m-17 -8
c0 -12 -16 -15 -85 -15 -109 0 -111 18 -2 23 45 1 83 4 85 5 1 1 2 -5 2 -13z
m-37 -42 c-23 -2 -64 -2 -90 0 -26 2 -7 3 42 3 50 0 71 -1 48 -3z m-1824 -118
c1 -40 -2 -65 -8 -65 -7 0 -11 26 -11 65 0 36 4 65 8 65 5 0 10 -29 11 -65z
m121 -7 c0 -36 4 -48 15 -48 8 0 15 -5 15 -11 0 -6 -7 -8 -16 -5 -9 3 -21 6
-27 6 -8 0 -11 20 -9 67 4 76 22 68 22 -9z m27 25 c-3 -10 -5 -2 -5 17 0 19 2
27 5 18 2 -10 2 -26 0 -35z m0 -109 c-3 -3 -12 -4 -19 -1 -8 3 -5 6 6 6 11 1
17 -2 13 -5z m1906 -31 c-24 -2 -62 -2 -85 0 -24 2 -5 4 42 4 47 0 66 -2 43
-4z m45 -103 l3 -85 -48 5 -48 5 43 3 42 3 0 75 0 74 -80 0 c-64 0 -80 -3 -80
-15 0 -8 -4 -15 -10 -15 -5 0 -10 5 -10 10 0 6 -6 10 -14 10 -8 0 -18 5 -21
10 -4 7 31 10 107 8 l113 -3 3 -85z m-411 -57 c-2 -21 -4 -6 -4 32 0 39 2 55
4 38 2 -18 2 -50 0 -70z m116 -20 c-7 -2 -19 -2 -25 0 -7 3 -2 5 12 5 14 0 19
-2 13 -5z m120 0 c-7 -2 -21 -2 -30 0 -10 3 -4 5 12 5 17 0 24 -2 18 -5z
m-2010 -40 c-13 -2 -33 -2 -45 0 -13 2 -3 4 22 4 25 0 35 -2 23 -4z m-189 -59
c11 -28 6 -44 -12 -44 -26 0 -30 6 -24 35 5 28 27 33 36 9z m169 9 c-24 -2
-62 -2 -85 0 -24 2 -5 4 42 4 47 0 66 -2 43 -4z m-315 -20 c-10 -2 -26 -2 -35
0 -10 3 -2 5 17 5 19 0 27 -2 18 -5z m232 -43 c-25 -4 -62 -10 -82 -14 -25 -6
-38 -5 -38 2 0 11 49 18 125 19 l40 0 -45 -7z m-40 -40 c0 -5 -5 -10 -11 -10
-5 0 -7 5 -4 10 3 6 8 10 11 10 2 0 4 -4 4 -10z m2737 -132 c-2 -13 -4 -3 -4
22 0 25 2 35 4 23 2 -13 2 -33 0 -45z m30 -45 c-2 -21 -4 -4 -4 37 0 41 2 58
4 38 2 -21 2 -55 0 -75z m-3480 -215 c-3 -7 -5 -2 -5 12 0 14 2 19 5 13 2 -7
2 -19 0 -25z m2 -80 c-1 -51 -1 -52 -10 -18 -7 32 -4 70 7 70 2 0 4 -24 3 -52z
m-172 -150 c-2 -29 -3 -8 -3 47 0 55 1 79 3 53 2 -26 2 -71 0 -100z m3423 111
c0 -6 -4 -7 -10 -4 -5 3 -10 11 -10 16 0 6 5 7 10 4 6 -3 10 -11 10 -16z
m-163 -56 c-3 -10 -5 -4 -5 12 0 17 2 24 5 18 2 -7 2 -21 0 -30z m-3090 -75
c-2 -18 -4 -6 -4 27 0 33 2 48 4 33 2 -15 2 -42 0 -60z m3260 45 c-3 -10 -5
-4 -5 12 0 17 2 24 5 18 2 -7 2 -21 0 -30z m-190 5 c-3 -8 -6 -5 -6 6 -1 11 2
17 5 13 3 -3 4 -12 1 -19z m170 -55 c-3 -10 -5 -2 -5 17 0 19 2 27 5 18 2 -10
2 -26 0 -35z m-170 -35 c-3 -7 -5 -2 -5 12 0 14 2 19 5 13 2 -7 2 -19 0 -25z
m-3240 -210 c-3 -7 -5 -2 -5 12 0 14 2 19 5 13 2 -7 2 -19 0 -25z m243 -58 c0
-5 -7 -10 -15 -10 -8 0 -15 5 -15 10 0 6 7 10 15 10 8 0 15 -4 15 -10z m708
-557 c-10 -2 -28 -2 -40 0 -13 2 -5 4 17 4 22 1 32 -1 23 -4z m329 -105 c-3
-8 -6 -5 -6 6 -1 11 2 17 5 13 3 -3 4 -12 1 -19z m193 -47 c0 -39 -4 -73 -10
-76 -6 -4 -10 22 -10 69 0 44 4 76 10 76 6 0 10 -30 10 -69z m-16 -116 c3 -8
1 -15 -4 -15 -6 0 -10 7 -10 15 0 8 2 15 4 15 2 0 6 -7 10 -15z m26 -35 c0 -5
-4 -10 -10 -10 -5 0 -10 5 -10 10 0 6 5 10 10 10 6 0 10 -4 10 -10z m-47 -137
c-7 -2 -19 -2 -25 0 -7 3 -2 5 12 5 14 0 19 -2 13 -5z m47 -23 c0 -5 -19 -9
-42 -9 l-43 2 35 7 c19 4 38 8 43 9 4 0 7 -3 7 -9z m-137 -7 c-13 -2 -35 -2
-50 0 -16 2 -5 4 22 4 28 0 40 -2 28 -4z m511 -42 c12 -5 -6 -8 -47 -9 -36 -1
-69 3 -72 8 -7 12 90 13 119 1z m66 -7 c0 -2 -9 -4 -21 -4 -11 0 -18 4 -14 10
5 8 35 3 35 -6z m-101 -40 c2 -2 -9 -4 -26 -4 -18 0 -33 -6 -37 -15 -3 -8 -1
-15 5 -15 6 0 7 -4 4 -10 -3 -5 0 -10 7 -10 10 0 9 -3 -1 -9 -11 -7 -4 -11 25
-14 25 -2 15 -4 -26 -4 -36 -1 -56 2 -44 5 19 6 21 14 14 47 -8 35 0 44 38 38
20 -3 39 -7 41 -9z m78 -80 c-3 -3 -12 -4 -19 -1 -8 3 -5 6 6 6 11 1 17 -2 13
-5z m-69 -21 c-16 -2 -40 -2 -55 0 -16 2 -3 4 27 4 30 0 43 -2 28 -4z m80 0
c-10 -2 -26 -2 -35 0 -10 3 -2 5 17 5 19 0 27 -2 18 -5z m289 1 c-3 -3 -12 -4
-19 -1 -8 3 -5 6 6 6 11 1 17 -2 13 -5z m-444 -21 c-7 -2 -21 -2 -30 0 -10 3
-4 5 12 5 17 0 24 -2 18 -5z m150 0 c-13 -2 -33 -2 -45 0 -13 2 -3 4 22 4 25
0 35 -2 23 -4z m364 1 c-3 -3 -12 -4 -19 -1 -8 3 -5 6 6 6 11 1 17 -2 13 -5z"/>
<path d="M1599 8497 c5 -5 26 -7 47 -5 l39 3 -47 5 c-26 3 -43 1 -39 -3z"/>
<path d="M1330 7896 c0 -9 5 -16 10 -16 6 0 10 4 10 9 0 6 -4 13 -10 16 -5 3
-10 -1 -10 -9z"/>
<path d="M1455 7750 c17 -7 17 -9 3 -9 -28 -1 -21 -18 8 -18 18 0 24 4 20 14
-3 8 -6 17 -6 19 0 2 -10 4 -22 3 -22 0 -22 -1 -3 -9z"/>
<path d="M1712 7625 c0 -16 2 -22 5 -12 2 9 2 23 0 30 -3 6 -5 -1 -5 -18z"/>
<path d="M1583 7533 c20 -2 54 -2 75 0 20 2 3 4 -38 4 -41 0 -58 -2 -37 -4z"/>
<path d="M2364 7805 c0 -55 1 -76 3 -47 2 29 2 74 0 100 -2 26 -3 2 -3 -53z"/>
<path d="M2341 7744 c0 -11 3 -14 6 -6 3 7 2 16 -1 19 -3 4 -6 -2 -5 -13z"/>
<path d="M2363 7610 c0 -30 2 -43 4 -27 2 15 2 39 0 55 -2 15 -4 2 -4 -28z"/>
<path d="M2341 7614 c0 -11 3 -14 6 -6 3 7 2 16 -1 19 -3 4 -6 -2 -5 -13z"/>
<path d="M2361 7494 c0 -11 3 -14 6 -6 3 7 2 16 -1 19 -3 4 -6 -2 -5 -13z"/>
<path d="M2361 7424 c0 -11 3 -14 6 -6 3 7 2 16 -1 19 -3 4 -6 -2 -5 -13z"/>
<path d="M2038 7283 c23 -2 61 -2 85 0 23 2 4 4 -43 4 -47 0 -66 -2 -42 -4z"/>
<path d="M2362 7225 c0 -16 2 -22 5 -12 2 9 2 23 0 30 -3 6 -5 -1 -5 -18z"/>
<path d="M7932 10780 c0 -14 2 -19 5 -12 2 6 2 18 0 25 -3 6 -5 1 -5 -13z"/>
<path d="M7994 10663 l5 -138 58 -8 c32 -4 74 -6 93 -4 l35 3 6 64 6 65 1 -63
c1 -40 7 -64 15 -67 6 -2 107 -8 222 -13 163 -7 185 -9 99 -10 l-110 -2 0 -70
-1 -70 111 -2 111 -2 -115 -6 -115 -6 112 -2 c61 -1 114 1 117 6 2 4 46 4 98
1 51 -4 95 -5 97 -3 2 2 -5 4 -17 4 -12 0 -22 5 -22 10 0 6 -33 10 -80 10
l-80 0 0 35 0 35 82 0 c45 0 79 2 77 5 -3 2 -58 5 -122 6 -78 2 -118 6 -121
14 -3 8 9 11 35 10 22 -1 42 2 45 7 3 4 42 7 87 6 l82 -2 -85 -6 -85 -6 87 -2
c73 -2 87 -5 91 -19 3 -11 5 -8 6 9 1 21 -4 29 -21 32 -13 3 -32 7 -43 9 -11
3 1 5 28 6 l47 1 2 -77 2 -78 6 80 c8 99 11 89 13 -37 1 -53 5 -100 10 -104 4
-4 7 -3 7 2 0 5 44 8 97 7 l98 -1 5 -103 5 -102 103 -3 c59 -1 102 1 102 7 0
5 -4 9 -10 9 -5 0 -10 5 -10 11 0 6 7 9 15 5 13 -4 15 9 15 89 l0 95 85 1 c47
1 93 2 103 3 16 1 17 -27 20 -439 l2 -440 108 0 107 0 3 -88 c2 -48 -1 -111
-8 -140 -7 -35 -8 -53 0 -55 5 -2 10 -32 10 -66 l0 -63 -57 -7 c-37 -4 -59 -3
-61 4 -2 5 -21 10 -43 10 l-39 0 0 51 c0 46 2 51 20 46 28 -7 25 10 -2 19 -22
7 -22 8 7 16 17 4 36 6 43 3 6 -2 12 0 12 5 0 6 -18 10 -41 10 -32 0 -40 3
-36 15 4 8 1 17 -4 21 -8 4 -10 -27 -7 -100 l3 -106 -112 0 -113 0 0 -111 0
-111 -110 4 -110 3 0 -322 0 -323 -215 0 -215 0 0 -110 0 -110 -110 0 -110 0
-1 -107 c-2 -237 -4 -278 -14 -285 -6 -5 -5 -8 3 -8 7 0 12 -6 11 -12 -1 -7
-1 -111 0 -230 l1 -218 110 0 110 0 0 -330 c0 -257 3 -330 13 -330 8 0 9 -2 1
-8 -15 -9 -19 -162 -4 -162 5 0 9 -6 7 -12 -3 -19 192 -24 198 -6 11 33 12
147 1 152 -6 2 -3 5 6 5 18 1 28 -31 27 -91 -1 -57 40 -86 81 -57 12 8 10 9
-7 4 -14 -4 -23 -2 -23 4 0 6 6 11 14 11 9 0 15 17 18 51 9 90 48 94 48 4 0
-51 9 -65 41 -65 14 0 11 144 -3 158 -9 9 -7 12 13 13 35 1 547 4 1177 7 l552
2 0 215 0 215 -67 0 c-92 0 -143 10 -143 26 0 11 23 14 105 14 l105 0 0 50 0
50 -42 2 -43 1 45 7 45 7 -42 1 c-30 2 -43 6 -43 16 0 10 -14 16 -42 19 -24 2
-6 4 40 5 l83 2 -3 63 -3 62 -32 0 c-17 0 -35 3 -39 8 -4 4 11 7 34 7 44 0 47
5 35 49 -6 23 -7 23 -14 5 -7 -19 -8 -19 -9 1 l-1 20 -9 -20 -9 -20 -1 20 -1
20 -9 -20 c-8 -19 -9 -19 -9 3 -1 19 4 22 34 22 l35 0 0 330 0 330 -110 0
-110 0 0 -110 0 -110 -111 0 c-106 0 -111 -1 -106 -20 5 -20 -18 -30 -25 -11
-2 6 -17 6 -38 1 l-35 -9 32 2 c18 2 30 0 27 -5 -3 -4 -22 -8 -42 -8 -20 0
-44 -5 -52 -10 -12 -8 -9 -10 10 -6 14 3 43 7 66 10 l40 6 2 -65 2 -65 -92 -2
-93 -2 95 -6 c112 -7 101 -12 -22 -10 l-88 1 0 -123 0 -124 38 4 c34 4 35 3
18 -10 -21 -17 -74 -19 -66 -3 9 18 -76 24 -350 22 l-275 -2 285 -5 c157 -3
255 -6 218 -8 -37 -1 -70 -7 -73 -13 -9 -14 15 -100 26 -93 5 3 9 -2 9 -10 0
-9 -7 -16 -15 -16 -9 0 -15 -9 -15 -25 0 -22 3 -25 25 -19 15 4 25 2 25 -5 0
-6 -9 -11 -21 -11 -14 0 -19 -5 -16 -15 4 -8 2 -17 -4 -20 -18 -12 2 -25 38
-25 26 0 36 5 40 20 3 11 14 20 24 20 17 0 19 -9 19 -95 l0 -94 -167 -3 c-93
-2 -171 -1 -175 2 -4 3 -8 54 -9 115 -1 60 -4 115 -6 122 -4 9 -27 13 -70 13
-35 0 -62 4 -59 8 3 5 23 8 46 7 30 -1 40 2 41 14 0 12 2 11 8 -4 8 -19 8 -19
19 2 6 11 13 35 14 52 2 23 7 31 23 32 19 0 19 1 -2 9 -13 5 -23 14 -23 21 0
7 -33 10 -109 7 -71 -2 -107 1 -105 7 4 10 -396 10 -424 0 -10 -4 -12 21 -10
113 l3 117 138 6 c76 4 139 9 141 10 1 2 -1 18 -5 34 -7 30 -7 30 -8 3 -1 -20
-6 -26 -21 -25 -18 1 -20 8 -20 90 0 56 4 86 10 82 6 -3 10 -13 10 -21 0 -8 5
-14 11 -14 7 0 9 9 6 21 -4 15 -2 19 10 15 8 -3 19 -6 24 -6 5 0 9 -7 9 -15 0
-8 6 -15 14 -15 7 0 19 7 26 15 7 8 20 16 29 17 9 1 -9 4 -39 8 l-55 7 58 1
c32 1 57 -2 57 -8 0 -5 7 -10 15 -10 8 0 15 5 15 10 0 6 79 10 218 10 l218 0
11 31 c7 17 17 28 22 24 7 -4 11 4 11 20 0 21 -4 26 -16 21 -14 -5 -15 2 -10
51 3 32 5 61 5 66 2 15 21 6 21 -10 0 -15 9 -18 44 -18 24 0 39 3 33 7 -8 5
-6 8 5 8 9 0 19 -6 21 -12 3 -7 6 -3 6 10 1 16 7 22 25 22 13 0 27 -6 29 -12
8 -18 8 602 1 629 -8 30 -35 38 -53 16 -9 -12 -12 -13 -9 -3 5 12 -7 15 -65
15 -66 0 -72 2 -84 25 -9 18 -13 20 -13 8 0 -16 -11 -18 -97 -17 -64 0 -91 3
-78 9 19 8 19 9 -3 9 -22 1 -23 4 -21 75 1 40 -1 78 -5 84 -3 6 4 14 16 18 13
4 24 2 26 -5 2 -6 28 -11 63 -11 52 0 59 -2 59 -20 0 -28 30 -26 31 3 0 21 1
21 9 2 11 -27 12 -15 19 715 l6 615 100 0 100 0 3 -322 2 -323 110 0 110 0 0
338 c0 225 -4 332 -10 322 -9 -13 -11 -13 -20 0 -7 11 -10 11 -10 2 0 -10 -21
-12 -87 -10 l-88 3 -2 110 c-1 61 -2 162 -3 225 0 79 -3 110 -10 100 -8 -12
-11 -13 -19 -1 -6 9 -11 10 -15 2 -11 -17 -373 -15 -379 2 -4 10 -6 10 -6 0
-1 -10 -30 -13 -111 -13 l-110 0 0 145 0 145 -755 0 -755 0 4 -137z m203 5
c-2 -13 -4 -5 -4 17 -1 22 1 32 4 23 2 -10 2 -28 0 -40z m511 -175 c-10 -2
-26 -2 -35 0 -10 3 -2 5 17 5 19 0 27 -2 18 -5z m-248 -83 c0 -5 -4 -10 -10
-10 -5 0 -10 5 -10 10 0 6 5 10 10 10 6 0 10 -4 10 -10z m7 -36 c-3 -3 -12 -4
-19 -1 -8 3 -5 6 6 6 11 1 17 -2 13 -5z m753 -264 c0 -5 -13 -10 -30 -10 -16
0 -30 5 -30 10 0 6 14 10 30 10 17 0 30 -4 30 -10z m907 -1582 c-3 -8 -6 -5
-6 6 -1 11 2 17 5 13 3 -3 4 -12 1 -19z m-469 5 c-16 -2 -40 -2 -55 0 -16 2
-3 4 27 4 30 0 43 -2 28 -4z m49 -55 c-3 -7 -5 -2 -5 12 0 14 2 19 5 13 2 -7
2 -19 0 -25z m400 -75 c-2 -21 -4 -4 -4 37 0 41 2 58 4 38 2 -21 2 -55 0 -75z
m-420 0 c-2 -16 -4 -3 -4 27 0 30 2 43 4 28 2 -16 2 -40 0 -55z m20 -15 c-3
-8 -6 -5 -6 6 -1 11 2 17 5 13 3 -3 4 -12 1 -19z m13 -359 l0 -109 -110 0
-110 0 0 113 0 112 110 -3 110 -3 0 -110z m920 -359 c0 -5 -8 -10 -17 -10 -15
0 -16 2 -3 10 19 12 20 12 20 0z m-19 -43 c-10 -9 -11 -8 -5 6 3 10 9 15 12
12 3 -3 0 -11 -7 -18z m-254 -64 c-2 -16 -4 -5 -4 22 0 28 2 40 4 28 2 -13 2
-35 0 -50z m250 5 c-3 -7 -5 -2 -5 12 0 14 2 19 5 13 2 -7 2 -19 0 -25z m-250
-60 c-3 -8 -6 -5 -6 6 -1 11 2 17 5 13 3 -3 4 -12 1 -19z m2 -260 c-1 -17 -3
-18 -6 -6 -4 15 -14 17 -61 14 -47 -3 -50 -2 -17 4 75 13 85 12 84 -12z m239
1 c5 -12 32 -11 32 1 0 6 19 9 43 9 37 -1 39 -2 13 -8 -17 -3 -28 -10 -25 -16
8 -19 -56 -17 -75 2 -16 15 -35 18 -105 17 l-86 -1 80 6 c84 7 118 4 123 -10z
m-221 -21 c-3 -7 -5 -2 -5 12 0 14 2 19 5 13 2 -7 2 -19 0 -25z m-267 12 c0
-5 -4 -10 -9 -10 -6 0 -13 5 -16 10 -3 6 1 10 9 10 9 0 16 -4 16 -10z m372
-12 c-53 -7 -77 -7 -85 1 -8 8 12 11 74 10 l84 -2 -73 -9z m-172 -25 c0 -10
-6 -13 -16 -9 -9 3 -26 6 -39 6 -12 0 -25 6 -28 13 -3 9 7 11 39 8 31 -2 44
-7 44 -18z m-1203 -5 c-3 -8 -6 -5 -6 6 -1 11 2 17 5 13 3 -3 4 -12 1 -19z
m1300 6 c-3 -3 -12 -4 -19 -1 -8 3 -5 6 6 6 11 1 17 -2 13 -5z m-227 -15 c0
-5 -18 -9 -41 -9 -22 0 -38 4 -35 9 3 5 22 9 41 9 19 0 35 -4 35 -9z m195 -39
c3 -5 1 -10 -4 -10 -6 0 -11 5 -11 10 0 6 2 10 4 10 3 0 8 -4 11 -10z m156 0
c14 0 19 -7 19 -25 0 -22 -4 -25 -40 -25 -22 0 -40 5 -40 10 0 6 -7 10 -16 10
-12 0 -15 -6 -10 -25 5 -20 3 -25 -11 -25 -10 0 -25 4 -33 10 -12 8 -12 10 3
16 21 8 22 24 2 24 -9 0 -15 9 -15 21 0 21 3 22 61 15 34 -3 70 -6 80 -6z
m-957 -34 c-3 -9 -10 -13 -15 -10 -5 3 -3 11 4 19 15 16 19 13 11 -9z m565 15
c11 -7 5 -11 -22 -16 -38 -7 -61 0 -52 16 8 12 56 12 74 0z m91 -1 c0 -5 -16
-10 -36 -10 -21 0 -33 4 -29 10 3 6 19 10 36 10 16 0 29 -4 29 -10z m-1044
-53 l74 -3 -77 0 c-62 1 -78 4 -79 16 0 8 1 10 3 3 3 -8 32 -14 79 -16z m1347
-4 c-13 -2 -33 -2 -45 0 -13 2 -3 4 22 4 25 0 35 -2 23 -4z m-1780 -680 c-7
-2 -21 -2 -30 0 -10 3 -4 5 12 5 17 0 24 -2 18 -5z m188 -5 c0 -10 2 -10 6 0
6 14 83 17 83 2 0 -5 -18 -10 -40 -10 -34 0 -40 -3 -41 -22 l-2 -23 -4 23 c-6
28 -24 28 -42 0 -14 -22 -14 -22 -22 -3 -14 37 -10 45 26 45 21 0 35 -5 36
-12z"/>
<path d="M9738 10713 c7 -3 16 -2 19 1 4 3 -2 6 -13 5 -11 0 -14 -3 -6 -6z"/>
<path d="M180 10598 c0 -52 4 -88 10 -88 13 0 13 140 0 160 -7 10 -10 -12 -10
-72z"/>
<path d="M9732 10650 c0 -19 2 -27 5 -17 2 9 2 25 0 35 -3 9 -5 1 -5 -18z"/>
<path d="M9752 10650 c0 -19 2 -27 5 -17 2 9 2 25 0 35 -3 9 -5 1 -5 -18z"/>
<path d="M10100 10660 c0 -11 4 -20 9 -20 5 0 7 9 4 20 -3 11 -7 20 -9 20 -2
0 -4 -9 -4 -20z"/>
<path d="M9732 10560 c0 -14 2 -19 5 -12 2 6 2 18 0 25 -3 6 -5 1 -5 -13z"/>
<path d="M8428 10313 c7 -3 16 -2 19 1 4 3 -2 6 -13 5 -11 0 -14 -3 -6 -6z"/>
<path d="M8475 10307 c8 -4 88 -6 178 -5 91 2 159 6 152 11 -8 4 -88 6 -178 5
-91 -2 -159 -6 -152 -11z"/>
<path d="M3491 9504 c0 -11 3 -14 6 -6 3 7 2 16 -1 19 -3 4 -6 -2 -5 -13z"/>
<path d="M3481 9454 c0 -11 3 -14 6 -6 3 7 2 16 -1 19 -3 4 -6 -2 -5 -13z"/>
<path d="M9680 9204 c0 -8 5 -12 10 -9 6 4 8 11 5 16 -9 14 -15 11 -15 -7z"/>
<path d="M10383 9090 c0 -47 2 -66 4 -42 2 23 2 61 0 85 -2 23 -4 4 -4 -43z"/>
<path d="M9585 9130 c-3 -5 -1 -10 4 -10 6 0 11 5 11 10 0 6 -2 10 -4 10 -3 0
-8 -4 -11 -10z"/>
<path d="M9660 9110 c0 -5 5 -10 11 -10 7 0 10 -15 7 -40 -2 -22 0 -40 4 -40
5 0 8 23 8 50 0 38 -4 50 -15 50 -8 0 -15 -4 -15 -10z"/>
<path d="M9560 9050 c-12 -8 -9 -10 13 -10 15 0 27 5 27 10 0 13 -20 13 -40 0z"/>
<path d="M10595 8992 c-9 -6 -12 -90 -7 -179 l2 -31 73 4 c39 2 87 4 105 4
l32 0 0 105 0 105 -97 0 c-54 0 -102 -4 -108 -8z"/>
<path d="M3272 8880 c0 -19 2 -27 5 -17 2 9 2 25 0 35 -3 9 -5 1 -5 -18z"/>
<path d="M5408 8793 c7 -3 16 -2 19 1 4 3 -2 6 -13 5 -11 0 -14 -3 -6 -6z"/>
<path d="M5601 8793 c-1 -10 -88 -13 -398 -14 -219 -1 -409 -4 -423 -8 -24 -6
-25 -9 -27 -91 -1 -47 -3 -91 -4 -97 -2 -10 -52 -13 -213 -13 -119 0 -218 -5
-226 -10 -13 -9 -13 -10 0 -10 12 -1 11 -4 -3 -15 -13 -9 -17 -20 -12 -37 5
-19 4 -20 -5 -8 -9 12 -10 9 -5 -15 4 -16 11 -33 17 -36 5 -4 8 -15 6 -25 -3
-16 -14 -19 -76 -22 l-72 -3 0 72 c0 90 -5 86 -13 -8 l-6 -73 75 0 c43 0 74
-4 74 -10 0 -6 -33 -10 -79 -10 l-80 0 -5 43 c-3 23 -8 56 -10 72 -2 17 -5 1
-5 -35 -1 -36 -4 -118 -6 -183 l-5 -117 537 2 c527 3 536 3 540 23 6 27 4 106
-3 129 -5 16 -2 18 22 12 28 -6 28 -5 -5 12 l-34 19 33 6 c51 11 198 8 205 -3
4 -7 -14 -9 -52 -5 -67 6 -61 0 12 -11 l50 -8 -35 -7 -35 -6 37 -2 c29 -1 35
-4 32 -18 -7 -35 -11 -133 -5 -134 35 -8 189 -4 200 5 11 8 13 8 7 -1 -5 -10
43 -13 216 -15 l223 -3 0 -105 0 -105 -108 0 -107 0 0 -330 0 -330 127 2 c88
2 122 -1 108 -7 -15 -8 -12 -8 14 -4 40 7 141 12 294 13 l107 1 0 109 c0 78 4
110 13 113 6 3 55 4 107 3 l95 -2 3 -217 2 -216 100 0 c54 0 110 4 124 10 25
9 26 12 26 102 0 64 -3 88 -10 78 -5 -8 -10 -48 -10 -89 0 -41 -2 -72 -5 -69
-3 2 -7 101 -10 219 -9 393 -17 579 -26 579 -5 0 -9 5 -9 11 0 5 4 8 9 4 5 -3
12 -1 16 5 4 6 52 10 116 10 l109 0 0 215 0 215 -209 0 c-181 0 -210 2 -215
16 -3 9 -6 58 -6 110 l0 94 -320 0 -320 0 0 89 c0 49 -3 96 -6 105 -5 14 -35
16 -224 16 -165 0 -220 3 -223 13 -4 10 -6 10 -6 0z m-1328 -610 c-7 -2 -19
-2 -25 0 -7 3 -2 5 12 5 14 0 19 -2 13 -5z m734 -19 c-3 -3 -12 -4 -19 -1 -8
3 -5 6 6 6 11 1 17 -2 13 -5z m121 -1 c-21 -2 -55 -2 -75 0 -21 2 -4 4 37 4
41 0 58 -2 38 -4z m1589 -305 c-3 -7 -5 -2 -5 12 0 14 2 19 5 13 2 -7 2 -19 0
-25z m0 -85 c-2 -16 -4 -5 -4 22 0 28 2 40 4 28 2 -13 2 -35 0 -50z m0 -65
c-3 -8 -6 -5 -6 6 -1 11 2 17 5 13 3 -3 4 -12 1 -19z"/>
<path d="M9760 8690 c0 -6 32 -10 75 -10 43 0 75 4 75 10 0 6 -32 10 -75 10
-43 0 -75 -4 -75 -10z"/>
<path d="M9888 8603 c7 -3 16 -2 19 1 4 3 -2 6 -13 5 -11 0 -14 -3 -6 -6z"/>
<path d="M4493 8583 c9 -2 23 -2 30 0 6 3 -1 5 -18 5 -16 0 -22 -2 -12 -5z"/>
<path d="M6343 8583 c15 -2 37 -2 50 0 12 2 0 4 -28 4 -27 0 -38 -2 -22 -4z"/>
<path d="M1090 8541 c0 -17 4 -33 10 -36 11 -7 25 39 15 54 -12 21 -25 11 -25
-18z"/>
<path d="M4128 8553 c7 -3 16 -2 19 1 4 3 -2 6 -13 5 -11 0 -14 -3 -6 -6z"/>
<path d="M4115 8529 c-9 -14 -2 -20 14 -10 8 6 9 11 3 15 -6 3 -14 1 -17 -5z"/>
<path d="M5288 8303 c7 -3 16 -2 19 1 4 3 -2 6 -13 5 -11 0 -14 -3 -6 -6z"/>
<path d="M4968 7810 l3 -110 -68 -1 c-157 -3 -143 0 -145 -34 -1 -16 -2 -60
-3 -97 l0 -68 55 0 c30 0 79 -3 108 -6 l52 -7 0 -57 c0 -31 3 -78 6 -104 l7
-47 92 2 92 1 6 142 c4 77 7 173 7 211 l0 70 110 -3 111 -3 -2 110 -1 111
-217 0 -216 0 3 -110z m-171 -296 c-3 -3 -12 -4 -19 -1 -8 3 -5 6 6 6 11 1 17
-2 13 -5z m343 -59 c0 -8 -4 -15 -10 -15 -5 0 -7 7 -4 15 4 8 8 15 10 15 2 0
4 -7 4 -15z m-143 -92 c-2 -21 -4 -6 -4 32 0 39 2 55 4 38 2 -18 2 -50 0 -70z
m30 0 c-2 -21 -4 -6 -4 32 0 39 2 55 4 38 2 -18 2 -50 0 -70z m113 2 c0 -19
-4 -35 -10 -35 -5 0 -10 16 -10 35 0 19 5 35 10 35 6 0 10 -16 10 -35z"/>
<path d="M10101 7877 c1 -23 3 -26 6 -9 5 24 19 30 25 10 3 -8 6 -9 11 -1 3 5
-5 15 -18 21 -24 11 -25 10 -24 -21z"/>
<path d="M10081 7854 c0 -11 3 -14 6 -6 3 7 2 16 -1 19 -3 4 -6 -2 -5 -13z"/>
<path d="M3200 7839 c0 -11 5 -17 10 -14 6 3 10 13 10 21 0 8 -4 14 -10 14 -5
0 -10 -9 -10 -21z"/>
<path d="M10020 7850 c0 -5 5 -10 11 -10 5 0 7 5 4 10 -3 6 -8 10 -11 10 -2 0
-4 -4 -4 -10z"/>
<path d="M10132 7783 c0 -88 5 -80 11 15 2 34 0 62 -3 62 -4 0 -7 -35 -8 -77z"/>
<path d="M10102 7820 c0 -14 2 -19 5 -12 2 6 2 18 0 25 -3 6 -5 1 -5 -13z"/>
<path d="M10082 7790 c0 -19 2 -27 5 -17 2 9 2 25 0 35 -3 9 -5 1 -5 -18z"/>
<path d="M9992 7780 c0 -14 2 -19 5 -12 2 6 2 18 0 25 -3 6 -5 1 -5 -13z"/>
<path d="M10008 7733 c7 -3 16 -2 19 1 4 3 -2 6 -13 5 -11 0 -14 -3 -6 -6z"/>
<path d="M10088 7718 c2 -10 8 -15 13 -12 14 8 11 31 -5 31 -8 0 -11 -8 -8
-19z"/>
<path d="M10018 7713 c12 -2 32 -2 45 0 12 2 2 4 -23 4 -25 0 -35 -2 -22 -4z"/>
<path d="M10268 7683 c7 -3 16 -2 19 1 4 3 -2 6 -13 5 -11 0 -14 -3 -6 -6z"/>
<path d="M10198 7663 c12 -2 30 -2 40 0 9 3 -1 5 -23 4 -22 0 -30 -2 -17 -4z"/>
<path d="M9450 7650 c0 -5 7 -10 15 -10 8 0 15 5 15 10 0 6 -7 10 -15 10 -8 0
-15 -4 -15 -10z"/>
<path d="M9313 7585 c0 -27 2 -38 4 -22 2 15 2 37 0 50 -2 12 -4 0 -4 -28z"/>
<path d="M9420 7583 c0 -55 5 -54 14 5 4 26 2 42 -4 42 -5 0 -10 -21 -10 -47z"/>
<path d="M9453 7545 c-3 -9 -3 -19 1 -22 3 -4 6 -1 6 5 0 7 5 12 10 12 6 0 10
-7 10 -16 0 -13 -7 -15 -28 -11 -15 3 -34 2 -42 -4 -10 -6 1 -9 36 -9 51 0 51
0 46 30 -5 32 -28 41 -39 15z"/>
<path d="M10203 7543 c9 -2 23 -2 30 0 6 3 -1 5 -18 5 -16 0 -22 -2 -12 -5z"/>
<path d="M10268 7543 c6 -2 18 -2 25 0 6 3 1 5 -13 5 -14 0 -19 -2 -12 -5z"/>
<path d="M1248 7313 c6 -2 18 -2 25 0 6 3 1 5 -13 5 -14 0 -19 -2 -12 -5z"/>
<path d="M1482 7300 c0 -14 2 -19 5 -12 2 6 2 18 0 25 -3 6 -5 1 -5 -13z"/>
<path d="M1158 7283 c23 -2 61 -2 85 0 23 2 4 4 -43 4 -47 0 -66 -2 -42 -4z"/>
<path d="M9840 7240 c0 -5 7 -10 15 -10 8 0 15 5 15 10 0 6 -7 10 -15 10 -8 0
-15 -4 -15 -10z"/>
<path d="M9890 7240 c0 -5 4 -10 9 -10 5 0 7 -9 4 -21 -4 -12 -17 -22 -35 -26
-26 -5 -28 -7 -13 -16 12 -6 20 -6 25 3 4 7 15 10 24 7 14 -6 16 0 14 33 -1
25 -7 40 -15 40 -7 0 -13 -4 -13 -10z"/>
<path d="M9840 7210 c0 -5 5 -10 10 -10 6 0 10 5 10 10 0 6 -4 10 -10 10 -5 0
-10 -4 -10 -10z"/>
<path d="M9745 7190 c3 -5 8 -10 11 -10 2 0 4 5 4 10 0 6 -5 10 -11 10 -5 0
-7 -4 -4 -10z"/>
<path d="M9899 7136 c-6 -7 -58 -14 -101 -15 -23 -1 -38 -6 -38 -13 0 -10 21
-12 80 -10 71 3 80 6 80 23 0 18 -11 25 -21 15z"/>
<path d="M6998 7073 c23 -2 61 -2 85 0 23 2 4 4 -43 4 -47 0 -66 -2 -42 -4z"/>
<path d="M9750 7070 c-3 -8 -3 -33 1 -55 3 -22 7 -34 8 -27 1 8 24 12 81 12
47 0 80 4 80 10 0 6 -18 10 -40 10 -22 0 -40 5 -40 10 0 6 -18 10 -39 10 -33
0 -40 4 -43 23 -2 15 -5 17 -8 7z"/>
<path d="M6660 7040 c20 -13 33 -13 25 0 -3 6 -14 10 -23 10 -15 0 -15 -2 -2
-10z"/>
<path d="M6641 7004 c0 -11 3 -14 6 -6 3 7 2 16 -1 19 -3 4 -6 -2 -5 -13z"/>
<path d="M6498 7003 c12 -2 32 -2 45 0 12 2 2 4 -23 4 -25 0 -35 -2 -22 -4z"/>
<path d="M6677 6938 c7 -78 11 -82 12 -10 1 34 -3 62 -8 62 -4 0 -6 -24 -4
-52z"/>
<path d="M6523 6853 c26 -2 67 -2 90 0 23 2 2 3 -48 3 -49 0 -68 -1 -42 -3z"/>
<path d="M6668 6853 c7 -3 16 -2 19 1 4 3 -2 6 -13 5 -11 0 -14 -3 -6 -6z"/>
<path d="M1680 6601 c0 -6 5 -13 11 -17 8 -4 7 -9 -2 -15 -9 -6 -10 -9 -2 -9
6 0 14 -8 16 -17 4 -17 5 -17 6 0 0 9 7 17 14 17 8 0 7 3 -3 10 -12 8 -12 10
3 16 9 3 14 10 11 15 -7 12 -54 12 -54 0z"/>
<path d="M1605 6590 c3 -5 13 -10 21 -10 8 0 14 5 14 10 0 6 -9 10 -21 10 -11
0 -17 -4 -14 -10z"/>
<path d="M1778 6593 c12 -2 32 -2 45 0 12 2 2 4 -23 4 -25 0 -35 -2 -22 -4z"/>
<path d="M1923 6515 c0 -44 2 -61 4 -37 2 23 2 59 0 80 -2 20 -4 1 -4 -43z"/>
<path d="M1590 6470 c-8 -5 -11 -12 -7 -16 4 -4 13 -2 19 4 15 15 7 24 -12 12z"/>
<path d="M1718 6453 c7 -3 16 -2 19 1 4 3 -2 6 -13 5 -11 0 -14 -3 -6 -6z"/>
<path d="M1573 6423 c20 -2 54 -2 75 0 20 2 3 4 -38 4 -41 0 -58 -2 -37 -4z"/>
<path d="M9440 6380 c0 -7 -25 -10 -72 -8 l-73 3 3 -70 c5 -112 -2 -105 115
-104 75 1 91 4 62 9 l-40 7 43 2 42 1 0 75 c0 52 -4 77 -12 79 -42 13 -68 15
-68 6z"/>
<path d="M9687 6300 c3 -30 7 -57 9 -59 9 -10 3 85 -6 99 -6 10 -7 -3 -3 -40z"/>
<path d="M7305 5740 c3 -5 8 -10 11 -10 2 0 4 5 4 10 0 6 -5 10 -11 10 -5 0
-7 -4 -4 -10z"/>
<path d="M7163 5343 c9 -2 23 -2 30 0 6 3 -1 5 -18 5 -16 0 -22 -2 -12 -5z"/>
<path d="M7233 5343 c15 -2 39 -2 55 0 15 2 2 4 -28 4 -30 0 -43 -2 -27 -4z"/>
<path d="M7283 4790 c0 -41 2 -58 4 -37 2 20 2 54 0 75 -2 20 -4 3 -4 -38z"/>
<path d="M7209 4831 c12 -8 13 -12 1 -25 -11 -14 -10 -16 6 -9 20 7 44 28 44
37 0 3 -15 6 -32 6 -24 0 -29 -3 -19 -9z"/>
<path d="M7320 4762 l5 -47 3 39 c2 21 0 42 -5 47 -4 4 -6 -13 -3 -39z"/>
<path d="M83 4513 c15 -2 37 -2 50 0 12 2 0 4 -28 4 -27 0 -38 -2 -22 -4z"/>
<path d="M4125 4280 c-18 -8 -17 -9 8 -9 15 -1 27 4 27 9 0 12 -8 12 -35 0z"/>
<path d="M5290 4020 l-75 -6 78 -4 c44 -3 81 -2 83 2 7 12 -9 13 -86 8z"/>
<path d="M5953 3816 l-112 -9 -3 -84 c-2 -46 -1 -88 0 -93 2 -6 47 -11 100
-12 l97 -2 -100 -6 c-55 -3 239 -7 653 -8 l752 -2 0 110 0 110 -542 0 c-299 0
-586 2 -638 3 -52 1 -145 -2 -207 -7z m55 -83 c-1 -67 -1 -67 -7 -18 -3 28 -5
58 -2 68 7 35 11 15 9 -50z"/>
<path d="M7821 3534 c0 -11 3 -14 6 -6 3 7 2 16 -1 19 -3 4 -6 -2 -5 -13z"/>
<path d="M7803 3460 c0 -36 2 -50 4 -32 2 17 2 47 0 65 -2 17 -4 3 -4 -33z"/>
<path d="M6818 2942 l-107 -3 -3 -92 c-2 -54 1 -95 7 -99 6 -4 -42 -8 -105 -9
-63 0 -137 -4 -165 -9 l-50 -7 43 -2 c28 -1 42 -5 41 -13 -1 -7 -1 -52 0 -100
l1 -88 325 0 325 0 0 210 0 210 -32 1 c-74 4 -179 4 -280 1z m60 -18 c-8 -7
-149 -7 -156 1 -3 3 32 5 78 5 46 0 81 -3 78 -6z m-61 -30 c-3 -3 -12 -4 -19
-1 -8 3 -5 6 6 6 11 1 17 -2 13 -5z"/>
<path d="M7565 2930 c3 -5 8 -10 11 -10 2 0 4 5 4 10 0 6 -5 10 -11 10 -5 0
-7 -4 -4 -10z"/>
<path d="M7597 2929 c7 -7 21 -7 44 -1 l34 10 -44 1 c-32 1 -42 -2 -34 -10z"/>
<path d="M7591 2774 c0 -11 3 -14 6 -6 3 7 2 16 -1 19 -3 4 -6 -2 -5 -13z"/>
<path d="M5518 2723 c50 -2 82 -8 82 -15 0 -7 -24 -8 -76 -3 -67 6 -77 5 -89
-11 -7 -11 -11 -23 -7 -28 3 -6 6 -30 5 -55 l0 -46 4 43 c5 47 2 46 101 36 59
-7 61 -8 65 -38 4 -29 4 -29 5 6 l2 37 -47 4 -48 3 46 2 c44 2 45 3 46 37 l1
35 -86 -2 -87 -2 83 -3z m77 -43 c3 -5 -2 -10 -13 -10 -10 0 -47 -3 -81 -6
-52 -6 -61 -5 -61 10 0 13 12 16 74 16 41 0 78 -4 81 -10z"/>
<path d="M6288 2723 c6 -2 18 -2 25 0 6 3 1 5 -13 5 -14 0 -19 -2 -12 -5z"/>
<path d="M10483 2343 c15 -2 39 -2 55 0 15 2 2 4 -28 4 -30 0 -43 -2 -27 -4z"/>
<path d="M6710 2063 l0 -28 85 3 85 3 2 -78 2 -78 5 95 c3 52 5 98 3 103 -2 4
-43 7 -93 7 l-89 0 0 -27z m170 -3 c0 -6 -33 -10 -80 -10 -47 0 -80 4 -80 10
0 6 33 10 80 10 47 0 80 -4 80 -10z"/>
<path d="M5863 773 c15 -2 39 -2 55 0 15 2 2 4 -28 4 -30 0 -43 -2 -27 -4z"/>
<path d="M5988 773 c12 -2 30 -2 40 0 9 3 -1 5 -23 4 -22 0 -30 -2 -17 -4z"/>
<path d="M6025 630 c-3 -5 -1 -10 4 -10 6 0 11 5 11 10 0 6 -2 10 -4 10 -3 0
-8 -4 -11 -10z"/>
</g>
</svg>
